<svg xmlns="http://www.w3.org/2000/svg" width="85" height="100" viewBox="0 0 85 100"><defs><style>.a{fill:#9e964f;}</style></defs><g transform="translate(-29.78 3)"><path class="a" d="M297.016,170.849a13.326,13.326,0,1,1,13.326-13.326A13.373,13.373,0,0,1,297.016,170.849Zm0-19.449a6.123,6.123,0,1,0,6.123,6.123A6.149,6.149,0,0,0,297.016,151.4Z" transform="translate(-195.563 -110.723)"/><path class="a" d="M97.852,57.178V74.453a18.01,18.01,0,1,1-36.017,0V53.893A28.989,28.989,0,0,0,87.407,24.939V7.543a3.561,3.561,0,0,0-3.6-3.65H76V3.65a3.6,3.6,0,1,0-7.2,0v7.786a3.6,3.6,0,1,0,7.2,0v-.243h4.2V24.939a21.612,21.612,0,1,1-43.22,0V11.192h3.962v.243a3.6,3.6,0,1,0,7.2,0V3.65a3.6,3.6,0,1,0-7.2,0v.243H33.382a3.561,3.561,0,0,0-3.6,3.65v17.4A29.128,29.128,0,0,0,54.632,53.893v20.56a25.214,25.214,0,1,0,50.424,0V57.178h-7.2Z" transform="translate(0 -3)"/></g></svg>