<svg xmlns="http://www.w3.org/2000/svg" width="40.53" height="65.355" viewBox="0 0 40.53 65.355"><defs><style>.a{fill:#9e964f;}</style></defs><path class="a" d="M124.847,3.112h-5.066V2.171a2.171,2.171,0,0,0-4.343,0v6.08a2.171,2.171,0,1,0,4.342,0v-.8h2.9v9.7A13.251,13.251,0,0,1,109.431,30.4h-1.013A13.251,13.251,0,0,1,95.173,17.153v-9.7h3.112v.8a2.171,2.171,0,1,0,4.342,0V2.171a2.171,2.171,0,1,0-4.342,0v.941H93A2.132,2.132,0,0,0,90.83,5.283v11.87A17.628,17.628,0,0,0,106.9,34.668V44.8h-7.02a10.277,10.277,0,1,0,.072,20.555h1.013A10.317,10.317,0,0,0,111.24,55.078V49.143h7.382V44.8H111.24V34.668a17.648,17.648,0,0,0,15.778-17.515V5.283A2.133,2.133,0,0,0,124.847,3.112ZM106.9,55.078a5.962,5.962,0,0,1-5.935,5.935H99.95a5.887,5.887,0,0,1-6.007-5.935,5.962,5.962,0,0,1,5.935-5.935h7.02v5.935Z" transform="translate(-89.6)"/><path class="a" d="M290.754,303.567a6.8,6.8,0,1,1,6.8-6.8A6.8,6.8,0,0,1,290.754,303.567Zm0-9.264a2.461,2.461,0,1,0,2.461,2.461A2.44,2.44,0,0,0,290.754,294.3Z" transform="translate(-257.027 -249.792)"/></svg>