<svg xmlns="http://www.w3.org/2000/svg" width="97" height="100" viewBox="0 0 97 100"><defs><style>.a{fill:#9e964f;}</style></defs><g transform="translate(-11.702)"><path class="a" d="M27.6,294.913a3.425,3.425,0,0,1-2.085-6.141l12.976-10.543a3.462,3.462,0,0,1,2.665-.7l34.3,4.171a3.04,3.04,0,0,0,2.2-.579l23.52-17.727a1.8,1.8,0,0,0,.463-2.317c-.116,0-.116-.116-.232-.232a1.87,1.87,0,0,0-2.549-.464c-6.6,4.866-18.654,13.672-18.77,13.672a4.178,4.178,0,0,1-2.317.7l-17.727-1.39a3.763,3.763,0,0,1-2.549-1.39l-3.939-5.214a3.3,3.3,0,0,1-.463-3.244,3.487,3.487,0,0,1,2.549-2.2l14.83-3.244h.348a1.746,1.746,0,0,0-.232-3.476H45.554a3.807,3.807,0,0,0-1.97.464L17.168,273.478a3.507,3.507,0,0,1-4.866-.811,3.617,3.617,0,0,1,.811-4.866l26.532-18.538c.116,0,.116-.116.232-.116a10.57,10.57,0,0,1,5.561-1.506h24.91a8.723,8.723,0,0,1,8.69,8.11v.116a8.746,8.746,0,0,1-7.415,9.153l-8.11,1.622,13.44,1.043c3.128-2.2,12.281-8.921,17.727-12.861a8.762,8.762,0,0,1,12.05,1.622c.116.116.232.232.232.348a8.693,8.693,0,0,1-1.738,12.165l-23.4,17.727a9.8,9.8,0,0,1-7.3,1.97L41.731,284.6,29.8,294.217A3.813,3.813,0,0,1,27.6,294.913Z" transform="translate(0 -194.913)"/><g transform="translate(50.188)"><path class="a" d="M263.913,64.762h-6.952V57.811a3.476,3.476,0,0,0-6.952,0v6.952h-6.952a3.476,3.476,0,1,0,0,6.951h6.952v6.952a3.476,3.476,0,0,0,6.952,0V71.714h6.952a3.476,3.476,0,0,0,0-6.951Z" transform="translate(-227.532 -42.285)"/><path class="a" d="M211.2,0a25.953,25.953,0,1,0,25.953,25.953A25.91,25.91,0,0,0,211.2,0Zm0,44.954a19,19,0,1,1,19-19A19.087,19.087,0,0,1,211.2,44.954Z" transform="translate(-185.246)"/></g></g></svg>