<svg xmlns="http://www.w3.org/2000/svg" width="64.543" height="63.22" viewBox="0 0 64.543 63.22"><defs><style>.a{fill:#9e964f;}</style></defs><path class="a" d="M63.8,31.3,33.984,5.321a2.106,2.106,0,0,0-2.823,0L.764,31.3a2.107,2.107,0,0,0-.217,3.04,2.164,2.164,0,0,0,1.665.8,1.911,1.911,0,0,0,1.375-.507l3.691-3.112V65.827A2.132,2.132,0,0,0,9.449,68H55.19a2.132,2.132,0,0,0,2.171-2.171V31.448l3.619,3.185a2.107,2.107,0,0,0,3.04-.217A2.255,2.255,0,0,0,63.8,31.3ZM52.947,63.655h-41.4v-35.9L32.537,9.808l20.41,17.877v35.97Z" transform="translate(0 -4.778)"/><path class="a" d="M134.474,214.756a2.763,2.763,0,0,1-1.23-.217c-11.8-4.777-15.778-13.679-14.4-20.41.868-4.994,4.632-8.323,9.264-8.323a11.95,11.95,0,0,1,6.369,2.027,11.671,11.671,0,0,1,6.3-1.954c4.632,0,8.251,3.185,9.264,8.178h0c1.3,6.658-2.605,15.561-14.33,20.41A2.157,2.157,0,0,1,134.474,214.756Zm-6.369-24.608c-2.605,0-4.487,1.809-4.994,4.7-.941,4.922,2.171,11.58,11.363,15.416,6.441-2.75,12.666-8.685,11.363-15.344-.579-2.967-2.461-4.7-5.066-4.7a8.256,8.256,0,0,0-4.994,1.954,2.171,2.171,0,0,1-2.605,0A9.121,9.121,0,0,0,128.105,190.149Z" transform="translate(-102.154 -160.728)"/></svg>