<svg xmlns="http://www.w3.org/2000/svg" width="71" height="66.079" viewBox="0 0 71 66.079"><defs><style>.a{fill:#9e964f;}</style></defs><path class="a" d="M121.769,56.628a3.737,3.737,0,0,1-1.375-.217c-16.14-6.441-21.64-18.6-19.9-27.72,1.3-6.658,6.08-10.929,12.231-10.929a17.048,17.048,0,0,1,8.975,2.9,16.21,16.21,0,0,1,8.9-2.9c6.152,0,11,4.27,12.231,10.856h0A20.589,20.589,0,0,1,139.5,43.673c-3.329,5.283-9.047,9.7-16.357,12.738A3.735,3.735,0,0,1,121.769,56.628Zm-8.975-34.6c-4.053,0-7.093,2.823-8.034,7.455-1.375,7.31,3.329,17.225,17.008,22.726,13.606-5.645,18.311-15.488,16.936-22.8-.868-4.56-3.981-7.382-8.034-7.382a13.3,13.3,0,0,0-7.6,2.967,2.171,2.171,0,0,1-2.605,0A13.351,13.351,0,0,0,112.794,22.033Z" transform="translate(-86.305 -17.763)"/><g transform="translate(0 22.943)"><path class="a" d="M15.705,226.965h-.072a2.226,2.226,0,0,1-2.1-2.244l.145-3.691L1.592,208.437A5.593,5.593,0,0,1,0,204.529V188.824A4.974,4.974,0,0,1,4.922,183.9h.072a5.05,5.05,0,0,1,5.066,4.922c.072,3.691.145,9.7.217,11.725l4.56,5.935h.145l-2.388-4.415a5.059,5.059,0,0,1,1.665-6.586,4.971,4.971,0,0,1,6.658,1.158l8.034,10.639a6.175,6.175,0,0,1,1.23,3.04v.145l.651,14.113a2.092,2.092,0,0,1-2.1,2.244,2.132,2.132,0,0,1-2.244-2.1l-.651-14.041a1.954,1.954,0,0,0-.362-.8l-8.034-10.639a.669.669,0,0,0-.868-.145.582.582,0,0,0-.217.8l3.908,7.093a2.228,2.228,0,0,1,.072,2.027,2.024,2.024,0,0,1-1.592,1.158l-4.487.724a2.3,2.3,0,0,1-2.1-.8l-5.79-7.527a2.02,2.02,0,0,1-.434-1.3s-.145-7.961-.217-12.376a.666.666,0,0,0-.724-.651H4.921a.623.623,0,0,0-.579.579v15.705a1.335,1.335,0,0,0,.362.868l12.738,13.245a1.919,1.919,0,0,1,.579,1.592l-.217,4.632A2.1,2.1,0,0,1,15.705,226.965Z" transform="translate(0 -183.829)"/><path class="a" d="M304.564,226.513a2.213,2.213,0,0,1-2.171-2.1l-.217-4.632a2.529,2.529,0,0,1,.579-1.592l12.81-13.245A1.274,1.274,0,0,0,316,204V188.3a.623.623,0,0,0-.579-.579.7.7,0,0,0-.8.724c-.072,4.343-.217,12.3-.217,12.3a2.168,2.168,0,0,1-.434,1.3l-5.79,7.527a2.142,2.142,0,0,1-2.1.8l-4.487-.724a2.15,2.15,0,0,1-1.592-1.23,2.228,2.228,0,0,1,.072-2.027l3.908-7.02a.658.658,0,0,0-.217-.8.669.669,0,0,0-.868.145l-8.106,10.711a1.954,1.954,0,0,0-.362.8l-.651,14.041a2.179,2.179,0,0,1-2.244,2.1,2.226,2.226,0,0,1-2.1-2.244l.651-14.113v-.145a6.174,6.174,0,0,1,1.23-3.04l8.106-10.639a4.971,4.971,0,0,1,6.658-1.158,5.04,5.04,0,0,1,1.665,6.586l-2.388,4.343h.145l4.56-5.935c.072-2.027.145-8.034.217-11.652a5.113,5.113,0,0,1,5.066-4.994,4.989,4.989,0,0,1,4.994,4.922V204a5.409,5.409,0,0,1-1.665,3.981l-12.087,12.593.145,3.691a2.092,2.092,0,0,1-2.1,2.244Z" transform="translate(-249.342 -183.377)"/></g></svg>