<svg xmlns="http://www.w3.org/2000/svg" width="20" height="20" viewBox="0 0 20 20"><defs><style>.a{fill:#f0eedd;}</style></defs><path class="a" d="M17.07,0H2.93A2.933,2.933,0,0,0,0,2.93V17.07A2.933,2.933,0,0,0,2.93,20H17.07A2.933,2.933,0,0,0,20,17.07V2.93A2.933,2.933,0,0,0,17.07,0ZM10.039,15.234a5.273,5.273,0,1,1,5.273-5.273A5.279,5.279,0,0,1,10.039,15.234ZM15.9,5.859A1.758,1.758,0,1,1,17.656,4.1,1.76,1.76,0,0,1,15.9,5.859Zm0,0" transform="translate(0 0)"/><path class="a" d="M392.615,90a.615.615,0,1,0,.615.615A.616.616,0,0,0,392.615,90Zm0,0" transform="translate(-376.735 -86.495)"/><path class="a" d="M156.307,150a4.307,4.307,0,1,0,4.307,4.307A4.312,4.312,0,0,0,156.307,150Zm0,0" transform="translate(-146.269 -144.344)"/></svg>