<svg xmlns="http://www.w3.org/2000/svg" width="114.837" height="100" viewBox="0 0 114.837 100"><defs><style>.a{fill:#9e964f;}</style></defs><g transform="translate(0 -26.645)"><path class="a" d="M107.428,41.8H80.9V34.074A7.347,7.347,0,0,0,73.5,26.645H41.49a7.347,7.347,0,0,0-7.409,7.429V41.8H7.409A7.348,7.348,0,0,0,0,49.23v69.985a7.347,7.347,0,0,0,7.409,7.429H107.428a7.347,7.347,0,0,0,7.409-7.429V49.23A7.347,7.347,0,0,0,107.428,41.8ZM42.971,35.56H72.014V41.8H42.971V35.56Zm62.975,82.17H8.891V50.716h97.056Z" transform="translate(0 0)"/><path class="a" d="M168.42,174.984H157.752V164.315a4.445,4.445,0,1,0-8.89,0v10.669H138.192a4.445,4.445,0,1,0,0,8.89h10.669v10.669a4.445,4.445,0,1,0,8.89,0V183.874H168.42a4.445,4.445,0,1,0,0-8.89Z" transform="translate(-95.814 -95.267)"/></g></svg>