<svg xmlns="http://www.w3.org/2000/svg" width="20" height="20" viewBox="0 0 20 20"><defs><style>.a{fill:#f0eedd;}</style></defs><path class="a" d="M7.462,20a14.12,14.12,0,0,1-2.651-.257,11.148,11.148,0,0,1-3.626-1.612L0,17.339l1.283-.515a34.773,34.773,0,0,0,3.312-1.46A5.2,5.2,0,0,1,2.33,12.157l-.3-1.107.245.046a5.386,5.386,0,0,1-.557-.84A6.026,6.026,0,0,1,1,7.191l.056-.966.473.224A6.233,6.233,0,0,1,1.1,4.98a6.684,6.684,0,0,1,.487-3.763L2,.292l.552.81A9.881,9.881,0,0,0,9.132,5.625a5.8,5.8,0,0,1,.239-2.553A4.628,4.628,0,0,1,10.962.843,4.114,4.114,0,0,1,13.734.011a4.055,4.055,0,0,1,2.723,1.372,8.043,8.043,0,0,0,1-.406c.219-.1.466-.215.776-.345L19.373.151l-.745,2.6c.049-.005.1-.009.153-.012L20,2.671l-.721,1.2c-.041.069-.052.089-.067.116-.058.107-.13.24-1.12,1.855a2.653,2.653,0,0,0-.349,1.483,16.925,16.925,0,0,1-.627,5.643,10.327,10.327,0,0,1-2.194,3.971,9.117,9.117,0,0,1-4.593,2.713A11.67,11.67,0,0,1,7.462,20Zm0,0" transform="translate(0 0)"/></svg>