<svg xmlns="http://www.w3.org/2000/svg" width="31.605" height="31.667" viewBox="0 0 31.605 31.667"><defs><style>.a{fill:#9e964f;}</style></defs><path class="a" d="M7.408,12.655A5.253,5.253,0,0,0,12.655,17.9a1.235,1.235,0,1,1,0,2.469,7.716,7.716,0,1,1,7.716-7.716,1.235,1.235,0,0,1-2.469,0,5.247,5.247,0,1,0-10.494,0Zm.97,10.919c-3.168-3.469-5.9-6.465-5.908-10.932a10.185,10.185,0,0,1,20.37,0,1.234,1.234,0,0,0,1.235,1.233h0a1.234,1.234,0,0,0,1.233-1.236A12.654,12.654,0,0,0,3.712,3.7,12.574,12.574,0,0,0,0,12.642,13.221,13.221,0,0,0,2.089,19.7a37.569,37.569,0,0,0,4.465,5.54,42.147,42.147,0,0,1,4.686,5.791,1.235,1.235,0,0,0,2.087-1.319,44.051,44.051,0,0,0-4.95-6.137Zm22.9.592a1.235,1.235,0,0,1-1.744.078l-.155-.141v4.085a3.481,3.481,0,0,1-3.476,3.478H18.97a3.481,3.481,0,0,1-3.476-3.478V24.16l-.093.085a1.235,1.235,0,1,1-1.666-1.822L20.107,16.6a3.483,3.483,0,0,1,4.724,0l4.083,3.733a1.235,1.235,0,0,1,.127.116L31.2,22.423a1.234,1.234,0,0,1,.078,1.744Zm-4.368-2.321-3.749-3.427a1.026,1.026,0,0,0-1.392,0L17.963,21.9v6.286A1.009,1.009,0,0,0,18.97,29.2h6.937a1.009,1.009,0,0,0,1.006-1.009Zm0,0" transform="translate(0 0)"/></svg>