<svg xmlns="http://www.w3.org/2000/svg" width="31.667" height="24.121" viewBox="0 0 31.667 24.121"><defs><style>.a{fill:#9e964f;}</style></defs><path class="a" d="M28.883,61H2.783A2.788,2.788,0,0,0,0,63.783V82.338a2.788,2.788,0,0,0,2.783,2.783h26.1a2.788,2.788,0,0,0,2.783-2.783V63.783A2.788,2.788,0,0,0,28.883,61ZM28.5,62.855,15.892,75.462,3.177,62.855ZM1.855,81.954v-17.8l8.936,8.859Zm1.312,1.312,8.942-8.941,3.133,3.106a.928.928,0,0,0,1.309,0l3.055-3.055L28.5,83.266Zm26.644-1.312-8.893-8.893,8.893-8.893Z" transform="translate(0 -61)"/></svg>