<svg xmlns="http://www.w3.org/2000/svg" width="31.667" height="31.664" viewBox="0 0 31.667 31.664"><defs><style>.a{fill:#9e964f;}</style></defs><g transform="translate(0 1.677)"><path class="a" d="M29.316,48.947,25.4,44.892l-.011-.011a2.781,2.781,0,0,0-3.936,0L19.661,46.67a2.107,2.107,0,0,1-2.982,0h0l-6.222-6.074a2.107,2.107,0,0,1,0-2.982l1.789-1.789a2.786,2.786,0,0,0,0-3.936L8.31,27.953a2.786,2.786,0,0,0-3.936,0L3.063,29.264l-.119.119a10.03,10.03,0,0,0,0,14.193L13.7,54.184a10.029,10.029,0,0,0,14.179.014c.022-.02,1.412-1.3,1.433-1.321A2.786,2.786,0,0,0,29.316,48.947ZM5.686,29.264a.929.929,0,0,1,1.312,0L10.934,33.2a.927.927,0,0,1,0,1.312l-.656.656L5.03,29.92Zm9.323,23.607L4.255,42.264a8.175,8.175,0,0,1-.512-11.007l5.229,5.229a3.969,3.969,0,0,0,.174,5.421l6.223,6.076a3.96,3.96,0,0,0,5.419.172l5.229,5.229A8.155,8.155,0,0,1,15.009,52.871Zm13-1.318-.623.575-5.279-5.279.656-.656a.927.927,0,0,1,1.307,0L28,50.252A.929.929,0,0,1,28.009,51.553Z" transform="translate(-0.002 -27.139)"/></g><g transform="translate(14.969 0)"><path class="a" d="M242.949.02a.928.928,0,0,0,0,1.855A13.931,13.931,0,0,1,256.864,15.79a.928.928,0,1,0,1.855,0A15.761,15.761,0,0,0,242.949.02Z" transform="translate(-242.021 -0.02)"/></g><g transform="translate(14.969 3.711)"><path class="a" d="M242.949,60.015a.928.928,0,0,0,0,1.855,10.216,10.216,0,0,1,10.2,10.2.928.928,0,1,0,1.855,0A12.073,12.073,0,0,0,242.949,60.015Z" transform="translate(-242.021 -60.015)"/></g><g transform="translate(14.969 7.421)"><path class="a" d="M242.949,120.011a.928.928,0,0,0,0,1.855,6.5,6.5,0,0,1,6.494,6.494.928.928,0,0,0,1.855,0A8.358,8.358,0,0,0,242.949,120.011Z" transform="translate(-242.021 -120.011)"/></g><g transform="translate(14.969 11.132)"><path class="a" d="M242.949,180.006a.928.928,0,0,0,0,1.855,2.786,2.786,0,0,1,2.783,2.783.928.928,0,1,0,1.855,0A4.644,4.644,0,0,0,242.949,180.006Z" transform="translate(-242.021 -180.006)"/></g></svg>