<svg xmlns="http://www.w3.org/2000/svg" width="21.974" height="21.972" viewBox="0 0 21.974 21.972"><defs><style>.a{fill:#f0eedd;}</style></defs><g transform="translate(0 1.164)"><path class="a" d="M20.343,42.272l-2.719-2.813-.008-.008a1.93,1.93,0,0,0-2.731,0l-1.241,1.241a1.462,1.462,0,0,1-2.069,0h0L7.257,36.476a1.462,1.462,0,0,1,0-2.069L8.5,33.166a1.933,1.933,0,0,0,0-2.731L5.767,27.7a1.933,1.933,0,0,0-2.731,0l-.91.91-.083.083a6.96,6.96,0,0,0,0,9.849l7.462,7.36a6.96,6.96,0,0,0,9.839.01c.015-.014.98-.9.994-.917A1.933,1.933,0,0,0,20.343,42.272ZM3.946,28.614a.644.644,0,0,1,.91,0l2.731,2.731a.643.643,0,0,1,0,.91l-.455.455L3.491,29.069ZM10.416,45l-7.462-7.36A5.673,5.673,0,0,1,2.6,30l3.629,3.629a2.754,2.754,0,0,0,.121,3.762L10.665,41.6a2.748,2.748,0,0,0,3.76.119l3.628,3.628A5.659,5.659,0,0,1,10.416,45Zm9.02-.915-.433.4L15.34,40.816l.455-.455a.643.643,0,0,1,.907,0l2.726,2.82A.644.644,0,0,1,19.436,44.08Z" transform="translate(-0.002 -27.139)"/></g><g transform="translate(10.387 0)"><path class="a" d="M242.665.02a.644.644,0,0,0,0,1.287,9.667,9.667,0,0,1,9.656,9.656.644.644,0,1,0,1.287,0A10.937,10.937,0,0,0,242.665.02Z" transform="translate(-242.021 -0.02)"/></g><g transform="translate(10.387 2.575)"><path class="a" d="M242.665,60.015a.644.644,0,0,0,0,1.287,7.089,7.089,0,0,1,7.081,7.081.644.644,0,1,0,1.287,0A8.378,8.378,0,0,0,242.665,60.015Z" transform="translate(-242.021 -60.015)"/></g><g transform="translate(10.387 5.15)"><path class="a" d="M242.665,120.011a.644.644,0,0,0,0,1.287,4.511,4.511,0,0,1,4.506,4.506.644.644,0,0,0,1.287,0A5.8,5.8,0,0,0,242.665,120.011Z" transform="translate(-242.021 -120.011)"/></g><g transform="translate(10.387 7.725)"><path class="a" d="M242.665,180.006a.644.644,0,0,0,0,1.287,1.933,1.933,0,0,1,1.931,1.931.644.644,0,0,0,1.287,0A3.222,3.222,0,0,0,242.665,180.006Z" transform="translate(-242.021 -180.006)"/></g></svg>